<?xml version="1.0" encoding="UTF-8" standalone="no"?>
<!-- Uploaded to: SVG Repo, www.svgrepo.com, Generator: SVG Repo Mixer Tools -->

<svg
   width="499.20474"
   height="498.99469"
   viewBox="0 0 14.976142 14.969841"
   fill="none"
   version="1.1"
   id="svg4"
   xmlns="http://www.w3.org/2000/svg"
   xmlnsSvg="http://www.w3.org/2000/svg">
  <defs
     id="defs8" />
  <path
     style="display:inline;fill:#d40000;stroke-width:0.0202755"
     d="m 9.4116397,10.966807 c -0.124997,-0.02043 -0.269819,-0.118849 -0.338619,-0.230131 -0.147413,-0.238435 -0.05734,-0.55326 0.197247,-0.689417 0.08336,-0.04458 0.09348,-0.04501 1.3410713,-0.05713 1.068724,-0.01038 1.27781,-0.01722 1.395442,-0.04562 0.668797,-0.161511 1.206429,-0.527482 1.563651,-1.064392 0.285818,-0.429588 0.416801,-0.869504 0.416743,-1.399658 -6e-5,-0.649726 -0.216502,-1.209429 -0.657892,-1.701345 -0.175637,-0.195741 -0.20186,-0.248688 -0.20292,-0.4097156 -0.0018,-0.2798619 0.201356,-0.4851024 0.481326,-0.4861659 0.200661,-7.62e-4 0.305862,0.068668 0.549423,0.3626037 0.586942,0.7083368 0.886213,1.6392358 0.806286,2.5079988 -0.10248,1.113896 -0.662875,2.051886 -1.588265,2.6584361 -0.500226,0.327874 -1.075682,0.514631 -1.705149,0.553383 -0.348369,0.02145 -2.1285993,0.02236 -2.2583443,0.0012 z"
     id="path343" />
  <path
     style="display:inline;fill:#d40000;stroke-width:0.0202755"
     d="m 10.374309,7.9573059 c -0.192311,-0.05322 -0.325672,-0.194078 -0.366059,-0.386623 -0.03264,-0.155597 0.01577,-0.307266 0.136635,-0.428134 0.139062,-0.139062 0.206193,-0.151117 0.84155,-0.151117 0.636084,0 0.702386,0.01195 0.842291,0.151858 0.197879,0.19788 0.191735,0.496128 -0.01429,0.693615 -0.136671,0.131009 -0.170383,0.137094 -0.78745,0.142152 -0.407041,0.0033 -0.583251,-0.0025 -0.652677,-0.021751 z"
     id="path345" />
  <path
     style="display:inline;fill:#d40000;stroke-width:0.0202755"
     d="M 0.3418161,14.949798 C 0.2246181,14.912138 0.1092264,14.816104 0.0529044,14.709354 -0.0053313,14.598975 -0.0091983,14.374941 0.0453264,14.270324 0.0656685,14.231293 0.8070867,13.473591 1.6929225,12.58654 L 3.3035331,10.973719 3.0848223,10.949294 C 1.6688661,10.791163 0.4574205,9.7344379 0.1084335,8.3530359 -0.247848,6.9427599 0.2905152,5.4814639 1.4783148,4.6347241 1.6933269,4.4814496 2.1151458,4.2652729 2.3576184,4.1840926 2.8715115,4.0120405 3.1015038,3.9906637 4.4387244,3.9906637 c 1.2392883,0 1.2362803,-3.27e-4 1.3867753,0.1501698 0.244007,0.2440071 0.178181,0.6190398 -0.138373,0.7883535 -0.08321,0.044507 -0.09314,0.044922 -1.3510443,0.056455 C 3.1303812,4.996696 3.0609156,4.999347 2.9050902,5.040258 2.0761434,5.25789 1.4525148,5.8023869 1.1464029,6.5757859 c -0.1580025,0.399198 -0.2101926,0.95776 -0.128397,1.374168 0.205572,1.046534 1.0246038,1.842747 2.0699682,2.012299 0.1263066,0.02049 0.3419349,0.02981 0.6906099,0.02987 l 0.5069634,9e-5 1.0034817,-1.003635 1.0034816,-1.003635 H 4.9116174 c -0.7594917,0 -1.423482,-0.0058 -1.4755341,-0.01297 -0.2346447,-0.03216 -0.4144338,-0.222537 -0.4319181,-0.457349 -0.00829,-0.11133 -0.00212,-0.142163 0.047868,-0.239181 0.063849,-0.123923 0.1871349,-0.229709 0.3062706,-0.262796 0.049572,-0.01377 0.7373211,-0.02101 2.0016153,-0.02109 l 1.9260946,-1.2e-4 1.01684,-1.016691 1.01684,-1.0166907 -0.09364,-0.062978 c -0.315567,-0.2122323 -0.291215,-0.6701703 0.04519,-0.8497371 0.07726,-0.041239 0.115405,-0.044758 0.549357,-0.050686 l 0.4663363,-0.00637 1.956582,-1.9533714 c 1.076121,-1.07434585 1.987715,-1.96895695 2.025766,-1.98801565 0.03805,-0.019059 0.120501,-0.039306 0.183223,-0.044993 0.362186,-0.032842 0.634431,0.3664548 0.473185,0.6940107 -0.0418,0.084922 -14.1309591,14.17650025 -14.2210395,14.22348725 -0.1021983,0.05331 -0.2524005,0.06589 -0.3628311,0.03041 z"
     id="path347" />
</svg>
